<mxfile host="app.diagrams.net" modified="2024-04-17T17:17:18.517Z" agent="Mozilla/5.0 (Windows NT 10.0; Win64; x64) AppleWebKit/537.36 (KHTML, like Gecko) Chrome/123.0.0.0 Safari/537.36" etag="tQIfiOytvWaktw8G7PrA" version="24.2.5" type="github">
  <diagram name="PÃ¡gina-1" id="RsLO3_b3h2Oi5umRFs2c">
    <mxGraphModel dx="1035" dy="551" grid="1" gridSize="10" guides="1" tooltips="1" connect="1" arrows="1" fold="1" page="1" pageScale="1" pageWidth="827" pageHeight="1169" math="0" shadow="0">
      <root>
        <mxCell id="0" />
        <mxCell id="1" parent="0" />
        <mxCell id="rOI9d_3aVGx14oZU6jYg-3" value="" style="shape=image;verticalLabelPosition=bottom;labelBackgroundColor=default;verticalAlign=top;aspect=fixed;imageAspect=0;image=data:image/png,iVBORw0KGgoAAAANSUhEUgAAAR4AAAEeCAMAAABrF4rkAAAAAXNSR0IArs4c6QAAAARnQU1BAACxjwv8YQUAAAKaUExURampqZycnIeHh3Nzc2RkZFlZWVFRUUxMTFJSUlBQUE9PT1dXV2FhYWtra3FxcYuLi52dnbGxsZWVlWpqaj8/Px4eHgsLCwICAgAAAAMDAwEBAQQEBAUFBRgYGDs7O66uroyMjFRUVCIiIggICC4uLkJCQk1NTU5OTlNTU1VVVTExMSgoKBkZGT4+Pnl5eY6OjktLSw4ODhAQEDc3N1xcXHt7e5mZmaGhoYGBgV5eXkVFRRISEkRERHR0dGBgYBsbG5+fn319fRQUFGJiYh8fHwwMDIqKilhYWBwcHBEREZeXlxoaGqurqzY2NgYGBg8PD6+vrzU1NQoKCh0dHWxsbJGRkTAwMJiYmI+PjxcXFxUVFQcHB2dnZ3V1dQ0NDXBwcBYWFrKyskdHR35+fgkJCV1dXYiIiGNjY6ioqKenp6Kioqqqqnx8fDQ0NCsrK0lJSZqamoODg3d3dy0tLWhoaG5ubjMzMyUlJXp6esLCwubm5tzc3OHh4czMzLCwsJCQkHJyckpKSoKCgoCAgDg4OOPj4/////Pz8/r6+l9fX4WFhSoqKqSkpMrKyv39/dbW1iAgIISEhJKSktLS0vHx8ff39+np6bS0tG1tbSkpKVZWVsnJyfn5+e7u7kFBQZSUlBMTEywsLPv7+/7+/qWlpUNDQ6CgoJOTk5ubmy8vL6ysrCYmJlpaWkhISFtbW3h4eGVlZaOjo56eno2NjX9/fzk5ObOzs0BAQJaWljIyMmlpaScnJ29vb4aGhjo6Oj09PXZ2dsvLy/X19fz8/MbGxvb29uTk5CMjI9HR0e3t7djY2Nvb2yEhISQkJKampomJia2trWZmZkZGRsHBwbe3t/Dw8PT09Pj4+Dw8PO/v77a2tvLy8uzs7AAAAE7Y8zgAAADedFJOU///////////////////////////////////////////////////////////////////////////////////////////////////////////////////////////////////////////////////////////////////////////////////////////////////////////////////////////////////////////////////////////////////////////////////////////////////////AAe2m48AAAAJcEhZcwAADsMAAA7DAcdvqGQAABmaSURBVHhe7Z35gxRlfocBuWZYQUC6PnWgMA0ol9AjlwxyjLQwLtQwhSJMQYPQ4AUKgkA2CXd6VQwRs6xAWE5RDl0PkEtRs2SXbAKiJotukvpf8lbPOzNV1W+9XVcPcfM+P+i3eg56nq567/f7drIEHIQeLkIPF6GHi9DDRejhIvRwEXq4CD1chB4uQg8XoYeL0MNF6OEi9HARergIPVyEHi5CDxehh4vQw0Xo4SL0cBF6uAg9XIQeLkIPF6GHi9DDRejhIvRwEXq4CD1chB4uQg8XoYeL0MNF6OEi9HARergIPVyEHi5CDxehh4vQw0Xo4SL0cBF6uAg9XIQeLkIPF6GHi9DDRejhIvRwEXq4CD1chB4uQg8XoYeL0MNF6OEi9HARergIPVyEHi5CDxehh4vQw+WO6+nUuctdXbt179Gzqrp7r5/d3bvPPfQL/ye4Y3r69ut/74CUBAkEWS7+T5FVTdI0RR54X69+99NvvKPcET2DBtdIiqIUxSA9cMjQYVUPPDi81/Bh944Y2WJKUQFt1OiH6A/cMTpcz5ixGVuLhtqHx42fQF/0MHHSI5PrJGgaoE55lL54R+hYPVOn2beMPGr0o9PpKzxmTJ5GBEGtr75jRUAH/sOPzdTI/ZAd+ji9DsSEWbPtm61hyhP0hY6lo/TM+Hma/JX1U+fQ6zBMmqtBb5S608uOpEP0zGuCAcx/kl5G4KkFQFaa/zS97DA6QM/CRVqzicX0KjJLsshBuZtedRAV17M0g0YsS+Rjf2a5iRS60qsOocJ6VmRJA2YKvUiA/shDXUkvOoCK6lml6sCz9ILPnDnPPf/CnBfpFYclpNkk/YxeVJwK6nmhNgv0ohc+jFk9eM1M2a66JejEpWlCb37p5aVr6ddZrEtpkF+hFxWmcnrWAzrnser7ytiRpPGc15Q8SL1WLxE5s0mjkbiSSGNQMxds8H1vS1Wkl/m0uJOlUno2ZLFovd8vn/PqRoC0g/Lp/Kaqrptf7Psi8Fe/+Ou/+ds0tlh9t257cEgWElGVb3qoL/0RDys1SNtpXEkqpEfRFeygsYedu0zSUQAah61r71lk1b8r/LLwmgJ6bVlr7x5B2kqaMfN1+oKb+2cSg2/Qi8pRET1LdUVn178z1qdIOZPaveFN+gIF+PtCYc8/QH+BvlDk+ZXFHsVbzI77XtKrH0HjilEJPQ1AMw1dTCg+Uou2v02vHeTVf/zVvsKvkXmHvtDG/gNEkDqYXrkYTAqtPjSuEMnr2ZlGmtW2HWY/UosOzqOXboB/Khza8xvgGfqCk+4mZOXwc/TKwZGjUKtoXBkS13OsDiYNHWytAZTUYd92jf1wHT/xG6m97HGxeT758QPv0isHQzRFo2FFSFqPmsNJGraz4ih0zB9Pr1iU0WNZ7+0mLaMmeuFgiamjgmMdyerpJ0NZR+M2JoFUVYfphQ9l9VjWu/NV1exJLxxIZdueMUhUz15kVe8I+vspKBhLL3wJoMeyThnkDppBL9o53YghNEycJPWQmiRDw1bOkAZwLsCHG0iPZY1PSzhL43Y+MFGpAihBPRuR83YVP0QzfktjLgH1WFY16ZGW9Lc+yuXK/mA0ktPTjOzHNKSMJx32ATQuQ2A91iekDnuJxm28r8M8Q+NESUyPKmdX0JCyTMkh6DBYcD2WNZa0nz6lcRsScp6GeCIkpQeKeo6GLZwnPe8HaVyeMHqsCYBe0vBUJDPI5FBIEtIDLeceovlMQW2IEdRQeiyrDo0lrSsZUsk9FZtk9NRDOkLDIhdMZMq0dNyE1GNdRE6lYRs5HYmXP4noScm5SzQsslqG6jOc4UNYPdY2GCXfi8bAPx6UJPTUpDCIhkU2ZJCmYVBC67EuIVPqJ/H2TwJ6LktwdSTmAqdpGJjweqx5Mkq+u0FXaJQQ8fXM0jL7aVgkB30qDYMTQY9laXlvYTMxiywNkyG2nj6G7Kq/Dc28i4YhiKTHguy9Wcak8wnOqiWgR5N/TqMiOhBqBQYlmh5LgU6jVs6n5SU0TIK4egx3AbAor7vqsKBE1EN+TqJRK2NlJYHytJWYv+qA++0ta3DXYYGJqod0JqbRqJW60hI7OvH0nId6ioY2B3KIODkXWc/TJtbQsJW82UCj+MTS0wnZWTS0+SCNCKVykch6rNWQPKsPn84pMVYSuYmlR0WeRjaXgCs0DE10PVY14Jocs6yqdGKPVxw9y9FIoyKQP6dReGLosc6WFDaZxIqfGHou5eQvaGiDkko2BHH0kMaEd4AVZjcaxSSGHhh1NLLZ7r6VQhJLD3mqPdPMK1PyFhrGI7qeXrpzSOEJw3iVhlGIpccaq3p/7qgU41Z2EF0PsJpGNhJG0igS8fSQx+sYjSgXoCXSeI6sZ5mxiEY2Va46LDwx9XQGPOsaNiRTOkfV0wX5iTQkzIN2lYbRiKnH6i55Bw9NYyON4hBVT7axB41sptXX0ygicfWQX+CsRQlXVSOBodWIeta5xgPPKYiyGcBBbD1P5r0/moHz6Y9IRD1IOSdEoX1Jo6jE1kN+g2eJ1AUd8We+oul5Hc5HfV3JJxea+Hp2lgzNb0SORtGJpsddqRt4gEaRia/H0hXvOhBF3UujyETS0981ojsdMo2ik4CezYZ3ZPVDHKVRZCLpQcrZ5qpJP0yj6CSgx5LhmhIgAP1oFJUoerY5lh8TNLCXU4YhCT1XSu7ir1LzaRSVKHoMOJdiPyslMDiXhB7LxFYaUebFfuwj6FnoHl/O42saxSARPSOyu2nUyiL5Io0iEkFPrfYyjWy2JNK5SURPp5K5661xb58IeiTXRPY4JWZ/ooiOfy787trvgAv0hUik5W00akVTva+EI7yebkjRqEgWO2kUB0X5l98XCn+INaRGikFcp1Erj8QZwiSE16PIrqG5ZAYOgH89VCj8EWaszBkvlr4ZwGfLUzBC65nuHtnZgYE0ioWCfyscP7RHj+m6Ft4tKGexnEaRCK3n4bxrXejLyWykbcC/v7bv2h/cDarwTKn1rqnbkTNHbHieXoQntB5dck2iS7nc6VHzbxyruRmRkQdmj7qxG+n0jUb8PJPN0JdDU1Nz9ub8FOPpUkFeVV9a/A19IRTh9Dw1xZANGrcABXLazv8QGUWRTRWqBnvrBXItL4aHvIdGXWbsBlr37ALoOCpBeSv85GkIPY9eJ3+L5Fn5tWrvwsd3dnm7z7pVURnUZdWgHedWrXt73Zh1C9fdoq+G5lafrTMG7e3j00df2/0lzd6hWbs83OrVoHrOHK4jbsyTT9HrnyCdxs0HuY/0wyFuiWDf+ukomdz3PZOZWruTrPgKKQ0NgRNNBNLzOVJ6zRh68VOnz5oMKaa+CpBwgRBAT28Z2m7eI/ve+UlfrxhPuRrs3/VlzqAlM1btHH91xopJH3VZVZmMNBtGkbrsQJCxoPJ6ICHHW9R0Cg12zSFTtHjtxNlpvZgJgVDMhYAu9AvJcu5mBsqm8p9kOT0rlDy4k+fTVQkvbby86xjlrWycbgb5LK5/tv5004IhG5tOb2yar2vLKrSXf8L1fFouu425jJ4PgYZvacxGxyYaUT41smX3RvoxrMGrdmbJ2srEmFgrQSqzjJavJ6Onyv2ppQ2xN6LfPg1SyZ2qSJXYp9XCpDRk/lQzVw9pRnk2+JVwCsto1E70aS/Gqrfm/C0aVYLvyNP8Ho1Z8PToKXMSDf0pWVpjrY1+90ArcVEH/sMdk29lI8VJwMTRA1Vi5B3wojdcplErOcylUWgGl3TZX45T0Acip3AKEH89pAZiJbTw8jXpymyveqBHFWV5FlpJnpDAoDE/d9bBscN6Vo37sEf14Mn1UiKDkVyGZvKe2qUdXz2NjYHs2EkOYJjFhLlFSGsl0tBBC/dDamn02JAuZKp0V3byrIS8noZe/PQMTnnXW/lztefBg8NnUX5bkiQiHOevDH/wg3EfzDo4+OMHHukaLC9bXF6VDR8/PnpWQPqIhv8fGG/KS2nohq3nHTl60+4nycFUySh1EbYeWU9m3etPhzXsGUimnqqK16b/9zDgHiVugaXnTSPFfhL/otExjEYOWHpyCjMz2l84qw3GWkSGnj4pKfg603ef6DJjx8LOnaK3BBPlwto+4+9acSTg+/9iI+oUDKHbrJoZ3UeGHuB7GvF56Mujit10kxVAyes1w+MuxYrHUx8cK04oyXn7f7oxt9wxBVN1lbx9Fbk0WnaWN3t3rrD07DBcSwzYbPmtAeQzKuTGm2vWT8sWD1UApnnWXncYS6+3TJCZ2Zpjp2/YqSPtZL8N2xnZ/FrZRFr7r3f+j/+c3gtmy6DS8NLSuVSPySqi3JybDVNB/cvjHdvwnjt/MQtJxS7n5tKO4ZOLMnQYozc7etDzds66QXo6coNfI558vM/+qXDi+J7CocIGtIzByNhQ/Fo7JXq2ll1E8pHdwZrGXDfTayB5ow2VT2XqpPM08unXjqNXLl45K6vQmTs4vzcw4Vrhl4Xb+8h/Ct/AfIu8uK2kQVOi5yaG0ojNwmXkk/Jf9dBpOZAdUIFEQ35cB+oX+O6dvzAYKcksnTq9J41VvykU9h0vEH7/w4l+KGY/zKubW77eSoke5LjF/hTySJfZiLidPPQJ7VUsS28tjx/5C2MfI+V0ye6KL3F9X+G1QuEHIqdQuF0ofAX79vmw0VP6ePX05CZDOwVJuo/G/swZQKoPGleWRaR+8GxDZvA6KYNW0ZiiS08X/nyC3DnHSdFTOPHrwn+1DMQpnrFJrx7Tu/HHyX4ji/M05rIUMjy3aQWYCEMNtEPzCHJw5Qx8F7i951rh2r5C4ZqtqFDYkzLtHWl16eqW76B49Jxx7SXx0E0LvAp/C+BOW1MBuqgyghZyI3UcoKHNanMAUXLtGnFDbqETJ4ihJtUWuBe1Ld9B8egZqy6gUSlzoZSt8tvZpCB44rkoLJVTIXI9TU05t3ftz371wwm7yiLlD7mDfjhxe081HrG/knanufDoUeG76fE0SloFXKoUVDKXMqmES9ODcthsOlbUjseBwglS6JDCmWCXQYVd+e/sr1x256d165nun3xruYzeNAzIg2qqcvfPjjSci88DcMtEDQ2te2T8klRXvyr8jsjZc7yw53YBWGh/ZYfq2tfj1nMFM2nkZTGaQ9ohjQBolVlAYFnvo/1vDcpOo70zCeWpwrU/2eUywX685i2jLUL3pLVbz+ctD2ApE1A+qXAppECsUE8eUfbaLJXblmRvhFG4fa2w74+Hrv33ocIPr504ixstX8npzirFrUdWfCZvoN2kUShQsqQgGeqPRvq9PZBqXQQumRsKP/zZvneOk7bhiXVo3Szcw3QeX+DS855fvsEDdZz6ngekSrSf74bCOyXGH7WtbO2Zwl3Ey6E/Hb/2P4Xbq9XG1uXZl1x9TpeexRo7xczjgCvnZ3BWA5/QMEGA/jQKyQUYrR3UozlM/gUpma+dKPxxVqOjL+rqlrr0DJHZCzKQmUyj0Cwzk05ESboSWuRHtlv7toSRJjDs6vTpqx4AGh1DXMucSSpdekx0ppGLK3Lkt0PUqp40zrF5U1PK97P8gPwjjawuch6KQiSl4Zx52IWDNCK49PjM37h/PCTdEtin7GYRomeZsi5JZnsH/9TkDOn83OueLe+vO5qbTj1vy858RW30Ll3CEwZDd+55j8+cLKJvIbEXnvi0XVo5JznmaZx6Vmqf0cgFtFCdCS/fywHGrkNw2JurJxxXy2blhaPd7NQzRGKJJQ1UGrH4eFc9ULuLsyxjTtxdSB5U3qkmOy/mTNTO7crZNafxhmxsFEeiWqeeBmZ/dChG06iEMQNgaIBiL8kZ6LuqZ76WZNd0EpglQJEFUh558mZU4Kjvsr/BuTIby+scqxGcemTmRlddZlZnhCGLgNndbp2ZuOLgTdT79s8XS0k+XSNVv37ud8irGLd67TeDuj7ciLRvZmLu00C4rLYXJk49zKGwzr6/DQqmtPVBPqkDu2AnxCvaPUiqz1LMjZAa2/YLPV+NlF8J3lg62+eil96+pdCh5wlml2IWfAaXkZVcMwAzwFzjQMgiuaVUn/p9WovktKtNOxF+G1OrwN/7v1Rr3w7q0LME3iQCNnUKe3SZPOI0auVNE+wlaCtVb9bX6PRknG9l00MrWb+U86mj+pV5uh6X2ufaHXqqallnNabYnaYvJJRM0K5IsY9L3FuSNDg6TQrzcOUjzYw1msgzp+yekd3jyV4uOPQ59DQxz2P2ydsgs1rSkxXGwW6EMh9XGGol5u6gTSUb/Ak7fBrsUplucqZ9FsqhZ5Sd/8YxfFWsxq6wc9O/zi5nkGcODyaoh/2r7mfv5s+k7qWRiwHuWZ0SHD1equfMUS2L9sXJNuSqAciDOQ7WmGae23ySfRRmBo4ch/Fg66kGM7fbG+wW6Yf2Cg4/SJtJzbYd99OiZ5O9QVpSSN81q1LsJdcKDAnMD8CnVujMTn55XU1q28ib7H/A0NkHDxpg7WibSiq1NP0zS4BBVGRbk6EV9RjS0TU+O+OWe/PdFemX9umGsz/ch/Wk1ioeUZiNK7+n94ZaelaePdjIPb/nuSdzpO3dEtt6vuKk9OzO7ODe8htTyDEfoynMzlwUBrEPhPU73O2k/hiNnOwvuyfmDcgtK5eJnnnI+vcotzMP2Trv08Ihxfv7NHKyUWPViVF4m71T1e/uGcYshHvL5XPBSS3/ENHzoMLpE3VXGGddkirTR09KYe3dWxM5xb6XQc7BmDb6Gj6DFD8arNv2bqP8SZRPZIp9EqIHec5iiqnMdZiXUj4fF/tj3CizioAodE4xP0q/u+ctsEZyH8sHyGF6X3Fij+jJ8xLrPaowB5983s8qhdlKamZvWIjAm+x/WFI8hzFQ2IPk1eUWcNk8BPtwm3J6Bkneo0aLSHXMYYVq7KKRi1xyu4nZjfju2dk0cvF1hvnQDSk3IGbzabFxWO7hup/9AbgTErehgZmCxO/ejwAU1gbOd8CcY0lpzAmonP8ylHbOFT+IckWzz/1J/mJGU2YIO8ftViP0cgFfRrKzJH6uMmq03hL7MLNAn9b3it0eJnq4Fbsly8xDgVajdAfCo9CYN89iEzdkw0ilstlUdHJpsy4702AvquoL5+xUC51U9vdODzRtpxT/bqLH+gy6/37Wap+lGZlaeBZ475V09oLeEbLs6c9FQpHt7Qk+f9tUyXs7vyP5jPd8nA9wwjR5x/b/bD1Wo5yZWwwYLNXYd6iFrPsNdYffgnFg8dpBT8Vk4RhCny57ndMsTtYDrhbaKeKThh52gzlk5OQZNMjFceIWK2eRgZ61t2pouhffRJ0w5ExbAplbhqL7LEt8I9Hz+gyD1U8gdCd96LbW53tNUPyqy7JFz5YpWi1a0hXRm+bFo6SLLumaWpIlTdI091rWdrZDUbF8/443tq2xv9GvXzW03Fn1oRjuOh/DyU57KOLh3pt3fnGxTjFTfhnIV2vpNQvu2zjCh9P1htI+TO14pubN+fbbeRee8XDmZ+4koE62nLSHhdJpyDnO4jHViHJaoC+cPJb2+m6kUwqkXJ1vyiGDvGdOSZgjT5DRltjYr8hxwCu4rUGzNuq1X3Z3HxftYnA6uUahTTMvj+UT3b6s1dYP5qRIfhH6tvF3z5jxkA+v7nXOZwbQM1qKVXbkUS6LSzi6qLHezjHVdRJmGQLoIW1hzqx2OR7lrbOPBBA4cRwDuXSGhUMQPZfjLCJAPqmhsFZW+xeG5Wn2ZO0sQxA95PaJfPZWtZb0zWPfPv47G8pwNR3uUPJAehZHTuB1v8kccYnHWiPvyZkfmBR7SsOXQHqsZVEzniPN2x4Wld1RF+TdB+bwjD/B9GzNa+FPySb08Bsjjwny/HlgH1YAIWeUgumxHkEqQham/lLYtxOQtaYRobXwHNQQO66KBNRj1aT10EmdtkKNeUyEL1/ICH88UL4x9L0cVI8FzQzp51MYzFmXRGjKKwGG/FykI7TAAush1Wku1GrrQbJRySRAs3W1XBYIN8hHqH6D67EkNAROJ2ZZH6G5MsVyKwP1MgstXMxTIiWbDKGH3D+pwC3gyVICZ6vxuWx407X6M0P1HbbiEkaPtcwIuM7rhbymMVd2JEq3xrQZLBXNaLnkaLxghNJjfZxOSQH2p09tRiqpaWMeOwEMpzGHSyo09orEsoTTY30DVcmVmfJ8PJ9S4x29EpwDmlZfptfSaRPMXNTmV0g9ljUO0sDm4qZdNl1I/ek63qyy3GUfUMFpAn0zsgGp6IO5ofXYcwKS0shOR/lMlQpDDZY8KinGpiRgGHuJ93ejYKAmxum2EfRYz0/RIKG52jNItmpyPaBoHZV8pZ3BOjSYJz0P0MQPBgKadPoeeh2JKHoIGxqKo9nmgcOzpvbf37X7fcfsIWzgQKUTZ7DZcdZORyVrdU2zPr7y5IZu99Y0kncno9Zn0icwEfUQVjQZ5A1BliWaOCx7slKb+oOw46IOI9/yTqDIWjZzLHReglKi67E58sriHlM+axrd88pH0XZOJ0vnJVNnLR/644/fr3yIuTAgPPH0/MUj9HARergIPVyEHi5CDxehh4vQw0Xo4SL0cBF6uAg9XIQeLkIPF6GHi9DDRejhIvRwEXq4CD1chB4uQg8XoYeL0MNF6OEi9HARergIPVyEHi5CDxehh4vQw0Xo4SL0cBF6uAg9XIQeLkIPF6GHi9DDRejhIvRwEXq4CD1chB4uQg8XoYeL0MNF6OEi9HARergIPVyEHi5CDxehh4vQw0Xo4SL0cLCs/wXBLIQE2o03NAAAAABJRU5ErkJggg==;" vertex="1" parent="1">
          <mxGeometry x="268" y="51" width="286" height="286" as="geometry" />
        </mxCell>
        <mxCell id="rOI9d_3aVGx14oZU6jYg-5" value="" style="ellipse;whiteSpace=wrap;html=1;aspect=fixed;" vertex="1" parent="1">
          <mxGeometry x="414" y="160" width="20" height="20" as="geometry" />
        </mxCell>
        <mxCell id="rOI9d_3aVGx14oZU6jYg-7" value="" style="endArrow=none;html=1;rounded=0;" edge="1" parent="1">
          <mxGeometry width="50" height="50" relative="1" as="geometry">
            <mxPoint x="452" y="174" as="sourcePoint" />
            <mxPoint x="474" y="185" as="targetPoint" />
          </mxGeometry>
        </mxCell>
        <mxCell id="rOI9d_3aVGx14oZU6jYg-8" value="" style="endArrow=none;html=1;rounded=0;" edge="1" parent="1">
          <mxGeometry width="50" height="50" relative="1" as="geometry">
            <mxPoint x="447" y="179" as="sourcePoint" />
            <mxPoint x="458" y="169" as="targetPoint" />
          </mxGeometry>
        </mxCell>
        <mxCell id="rOI9d_3aVGx14oZU6jYg-9" value="" style="endArrow=none;html=1;rounded=0;" edge="1" parent="1">
          <mxGeometry width="50" height="50" relative="1" as="geometry">
            <mxPoint x="425" y="186" as="sourcePoint" />
            <mxPoint x="424" y="180" as="targetPoint" />
          </mxGeometry>
        </mxCell>
        <mxCell id="rOI9d_3aVGx14oZU6jYg-10" value="" style="endArrow=none;html=1;rounded=0;" edge="1" parent="1">
          <mxGeometry width="50" height="50" relative="1" as="geometry">
            <mxPoint x="425" y="185" as="sourcePoint" />
            <mxPoint x="450" y="177" as="targetPoint" />
          </mxGeometry>
        </mxCell>
        <mxCell id="rOI9d_3aVGx14oZU6jYg-12" value="" style="endArrow=none;dashed=1;html=1;dashPattern=1 3;strokeWidth=2;rounded=0;" edge="1" parent="1">
          <mxGeometry width="50" height="50" relative="1" as="geometry">
            <mxPoint x="435" y="166" as="sourcePoint" />
            <mxPoint x="453" y="151" as="targetPoint" />
          </mxGeometry>
        </mxCell>
        <mxCell id="rOI9d_3aVGx14oZU6jYg-16" value="" style="shape=or;whiteSpace=wrap;html=1;rotation=-180;" vertex="1" parent="1">
          <mxGeometry x="450" y="142" width="9" height="18" as="geometry" />
        </mxCell>
        <mxCell id="rOI9d_3aVGx14oZU6jYg-17" value="" style="endArrow=classic;html=1;rounded=0;" edge="1" parent="1">
          <mxGeometry width="50" height="50" relative="1" as="geometry">
            <mxPoint x="270" y="279" as="sourcePoint" />
            <mxPoint x="701" y="278" as="targetPoint" />
          </mxGeometry>
        </mxCell>
        <mxCell id="rOI9d_3aVGx14oZU6jYg-18" value="" style="endArrow=classic;html=1;rounded=0;" edge="1" parent="1">
          <mxGeometry width="50" height="50" relative="1" as="geometry">
            <mxPoint x="434" y="170.5" as="sourcePoint" />
            <mxPoint x="664" y="169" as="targetPoint" />
          </mxGeometry>
        </mxCell>
        <mxCell id="rOI9d_3aVGx14oZU6jYg-19" value="&lt;i&gt;&lt;font style=&quot;font-size: 15px;&quot;&gt;N&lt;/font&gt;&lt;/i&gt;" style="text;html=1;align=center;verticalAlign=middle;whiteSpace=wrap;rounded=0;" vertex="1" parent="1">
          <mxGeometry x="513" y="147" width="60" height="30" as="geometry" />
        </mxCell>
        <mxCell id="rOI9d_3aVGx14oZU6jYg-20" value="&lt;i&gt;&lt;font style=&quot;font-size: 15px;&quot;&gt;k+N&lt;/font&gt;&lt;/i&gt;" style="text;html=1;align=center;verticalAlign=middle;whiteSpace=wrap;rounded=0;" vertex="1" parent="1">
          <mxGeometry x="630" y="280" width="60" height="30" as="geometry" />
        </mxCell>
        <mxCell id="rOI9d_3aVGx14oZU6jYg-21" value="&lt;i&gt;&lt;font style=&quot;font-size: 15px;&quot;&gt;K&lt;/font&gt;&lt;/i&gt;" style="text;html=1;align=center;verticalAlign=middle;whiteSpace=wrap;rounded=0;" vertex="1" parent="1">
          <mxGeometry x="394" y="280" width="60" height="30" as="geometry" />
        </mxCell>
        <mxCell id="rOI9d_3aVGx14oZU6jYg-22" value="&lt;i&gt;&lt;font style=&quot;font-size: 15px;&quot;&gt;K-1&lt;/font&gt;&lt;/i&gt;" style="text;html=1;align=center;verticalAlign=middle;whiteSpace=wrap;rounded=0;" vertex="1" parent="1">
          <mxGeometry x="320" y="280" width="60" height="30" as="geometry" />
        </mxCell>
        <mxCell id="rOI9d_3aVGx14oZU6jYg-23" value="&lt;i&gt;&lt;font style=&quot;font-size: 15px;&quot;&gt;K-2&lt;/font&gt;&lt;/i&gt;" style="text;html=1;align=center;verticalAlign=middle;whiteSpace=wrap;rounded=0;" vertex="1" parent="1">
          <mxGeometry x="250" y="280" width="60" height="30" as="geometry" />
        </mxCell>
        <mxCell id="rOI9d_3aVGx14oZU6jYg-24" value="" style="endArrow=classic;html=1;rounded=0;dashed=1;" edge="1" parent="1">
          <mxGeometry width="50" height="50" relative="1" as="geometry">
            <mxPoint x="454" y="150.66" as="sourcePoint" />
            <mxPoint x="281" y="149" as="targetPoint" />
          </mxGeometry>
        </mxCell>
      </root>
    </mxGraphModel>
  </diagram>
</mxfile>
